<svg width="387" height="369" viewBox="0 0 387 369" fill="none" xmlns="http://www.w3.org/2000/svg">
<path d="M189.796 355.53L208.328 367.927C208.328 367.927 211.348 370.056 213.681 366.925C216.015 363.795 216.015 359.788 223.702 359.788L227.271 359.537C227.271 359.537 229.88 357.909 232.488 357.909L229.742 354.403L238.253 347.891L237.429 346.138L243.881 340.502C243.881 340.502 249.647 342.005 252.804 333.615C252.804 333.615 253.49 329.733 256.373 329.482C256.373 329.482 258.02 330.609 258.707 333.49C258.707 333.49 261.315 337.247 261.589 330.484L262.413 327.354L264.335 325.099L266.394 322.971V321.092L271.747 317.586V315.206L275.042 311.7C275.042 311.7 279.435 312.952 278.611 309.07C277.787 305.188 278.713 307.067 278.713 307.067L280.255 306.613L284.648 311.324L287.531 311.199L297.552 309.571L295.355 307.568L294.806 304.562L298.65 302.308V300.054L310.318 296.798L311.142 298.05L334.89 295.295L343.812 290.036L352.872 285.527L365.638 293.417L364.952 295.671L372.228 301.181L379.091 293.667L371.129 287.656L373.6 282.772H375.934L377.856 275.008L379.915 273.631H382.66V272.629H386.092V271.752C386.092 271.752 387.327 271.001 386.092 270.876C384.857 270.751 383.621 270.25 383.621 270.25C383.621 270.25 383.072 270.124 383.072 269.373C383.072 268.622 382.248 267.244 382.248 267.244L382.797 265.867H384.445L385.543 267.996L386.641 267.745L386.092 265.867L385.955 264.614L384.17 263.863L376.757 253.845L381.15 248.836L358.363 235.061V234.184L360.148 232.431V230.803L363.168 228.424L367.423 226.044L365.501 224.291L365.227 220.785L368.247 217.779L372.365 216.151H377.169V215.275L366.325 197.993L366.874 186.222L370.718 180.587L370.58 177.08H369.07L365.638 179.585L360.834 180.211L357.539 179.835L356.99 178.458L355.892 167.688L369.619 166.812L370.168 165.935L370.718 156.793H368.796L366.874 144.02L312.926 153.162L303.413 152.035L302.356 151.909L304.278 150.782L306.337 148.153V138.635L303.592 135.004L301.944 134.127L293.296 124.735L293.983 123.357L295.355 108.33L292.61 105.325H290.551L285.197 112.713L283.825 113.464L282.04 114.091L280.255 115.343C280.255 115.343 278.883 115.844 278.746 116.47C278.608 117.096 276 118.474 276 118.474L274.765 120.477L273.804 121.479L237.152 128.492L233.995 128.617L228.092 111.837L224.66 112.087L223.974 108.08L216.699 98.0615L213.679 89.6712L215.189 88.4189L208.462 63.6238L218.621 60.7436L216.012 50.4749L216.836 48.847L215.326 46.5929L214.64 42.4604H212.443L211.208 34.0701L215.738 33.444L212.169 20.1698L209.149 19.2932L206.678 13.1571L206.815 9.27499L204.207 1.38564L197.481 3.38929L193.028 3.63974V7.14612L186.087 7.39658L182.381 8.89931L181.283 7.14612L180.322 6.1443H177.302C177.302 6.1443 175.243 8.02272 174.419 8.14794C173.595 8.27317 171.262 8.52363 171.262 8.52363L165.908 9.02454L163.575 7.5218V6.01907L162.202 4.76679L159.594 7.5218L158.358 14.1589L156.162 16.2877H153.279L146.827 16.1625L144.631 14.785V10.0264L141.886 6.26953L136.258 6.89567L134.473 9.14977H132.139L129.943 7.64703L117.451 12.5309L110.588 12.7814L106.061 0.634277H95.3533L93.4315 2.38747L85.4698 2.63792L81.9007 9.27499L78.6062 6.89567L77.7825 7.64703L80.8025 13.1571L79.7044 13.7832L76.4098 11.9048L73.9389 14.0336L70.919 11.7795L67.6244 12.4057L66.8008 15.0355L62.1336 18.4166L60.0745 19.0428L64.4672 28.4348C64.4672 28.4348 71.1935 36.6999 69.409 47.219C67.6244 57.7381 66.8008 55.8597 66.8008 55.8597C66.8008 55.8597 65.2908 56.8615 65.7026 60.3679L58.29 63.7491L54.7209 60.8688L53.8973 62.2463L52.25 63.1229L51.1518 61.7454L41.5428 63.9995C41.5428 63.9995 37.4247 66.6293 35.9147 74.3934L35.2283 75.0196L27.5411 74.3934L23.8348 72.8907V73.8925C23.8348 73.8925 28.6393 79.4025 26.7175 82.408L23.8348 92.8019C23.8348 92.8019 22.5993 94.6803 23.8348 96.4335L23.2857 119.976L27.8157 120.728L25.482 141.516L12.1667 161.051L38.2483 165.935C38.2483 165.935 40.4447 177.832 35.5029 185.971L27.2666 185.846C27.2666 185.846 21.3639 189.603 19.9912 190.104C18.6185 190.605 20.1284 194.737 20.1284 194.737L22.0503 196.365L21.6384 206.509L19.7166 207.385L17.6576 217.028C17.6576 217.028 2.81575 217.904 0.498602 227.672C0.498602 227.672 -0.325028 231.429 5.02857 240.946L5.16584 245.955L5.98947 245.83L14.5003 242.449L14.6376 253.344L42.641 253.845L44.0137 251.716L52.5246 251.215L54.3091 248.836L57.4663 249.086L58.29 249.963L55.6818 257.226L59.6627 258.478L62.8199 261.108L62.4081 269.248H64.4672L66.9381 272.504L67.7617 273.881L67.6244 276.636L72.978 278.64L73.2526 280.268L78.7435 283.774L84.3716 286.279L91.0979 289.159L94.667 289.535L94.9415 294.043L102.217 300.304L110.041 304.437L114.571 305.814L121.023 310.197L123.494 312.952L118.415 322.094V328.23L121.298 333.49L126.651 334.241L124.18 337.747L123.219 340.127L125.141 344.635L122.396 350.27L124.729 352.023L122.67 358.41L125.416 359.287L125.004 361.541L129.671 362.042L153.831 361.415L154.38 358.16L170.029 357.909V356.281L175.52 350.521L175.932 349.268L177.579 348.517L184.58 354.403L189.796 355.53Z" fill="#CC8E1E"/>
<path d="M68.3443 147.634V135.994H69.9615L74.7584 143.572C74.8938 143.791 75.0813 144.1 75.3209 144.501C75.5604 144.903 75.7974 145.309 76.0318 145.72C76.0162 145.314 76.0032 144.892 75.9927 144.455C75.9875 144.017 75.9849 143.702 75.9849 143.509V135.994H77.3912V147.634H75.7584L71.4927 140.9C71.3313 140.65 71.0917 140.267 70.774 139.751C70.4615 139.231 70.0969 138.621 69.6802 137.923C69.7063 138.647 69.7245 139.259 69.7349 139.759C69.7453 140.254 69.7505 140.629 69.7505 140.884V147.634H68.3443ZM82.0474 147.759C81.2297 147.759 80.5448 147.548 79.9927 147.126C79.4459 146.705 79.1724 146.082 79.1724 145.259C79.1724 144.785 79.2636 144.4 79.4459 144.103C79.6334 143.806 79.8808 143.574 80.188 143.408C80.5005 143.236 80.8521 143.106 81.2427 143.017C81.6386 142.929 82.0422 142.858 82.4537 142.806C82.9797 142.733 83.3938 142.679 83.6959 142.642C83.9979 142.606 84.2115 142.546 84.3365 142.462C84.4667 142.379 84.5318 142.233 84.5318 142.025V141.947C84.5318 141.499 84.3703 141.129 84.0474 140.837C83.7297 140.546 83.2818 140.4 82.7037 140.4C82.1308 140.4 81.6594 140.541 81.2896 140.822C80.925 141.098 80.7271 141.442 80.6959 141.853H79.3443C79.3703 141.348 79.5266 140.9 79.813 140.509C80.0995 140.113 80.4901 139.801 80.9849 139.572C81.4797 139.343 82.0526 139.228 82.7037 139.228C83.6672 139.228 84.4302 139.478 84.9927 139.978C85.5604 140.473 85.8443 141.129 85.8443 141.947V147.634H84.5318V146.462H84.5005C84.4016 146.66 84.2558 146.861 84.063 147.064C83.8703 147.262 83.6099 147.429 83.2818 147.564C82.9589 147.694 82.5474 147.759 82.0474 147.759ZM82.2349 146.572C82.7766 146.572 83.2167 146.475 83.5552 146.283C83.8938 146.085 84.1412 145.83 84.2974 145.517C84.4537 145.205 84.5318 144.869 84.5318 144.509V143.478C84.4328 143.572 84.1698 143.658 83.7427 143.736C83.3157 143.809 82.8651 143.879 82.3912 143.947C82.0735 143.988 81.7714 144.061 81.4849 144.166C81.2037 144.264 80.9745 144.408 80.7974 144.595C80.6203 144.778 80.5318 145.025 80.5318 145.337C80.5318 145.723 80.6828 146.025 80.9849 146.244C81.2922 146.462 81.7089 146.572 82.2349 146.572ZM90.688 147.822C90.0995 147.822 89.5657 147.725 89.0865 147.533C88.6073 147.34 88.2193 147.048 87.9224 146.658C87.6255 146.262 87.4589 145.764 87.4224 145.166H88.7349C88.8287 146.176 89.4693 146.681 90.6568 146.681C91.2297 146.681 91.6802 146.561 92.0084 146.322C92.3417 146.082 92.5084 145.78 92.5084 145.416C92.5084 145.103 92.3938 144.853 92.1646 144.666C91.9354 144.478 91.636 144.343 91.2662 144.259L89.938 143.947C88.386 143.582 87.6099 142.801 87.6099 141.603C87.6099 141.134 87.7349 140.72 87.9849 140.361C88.2401 139.996 88.5917 139.712 89.0396 139.509C89.4927 139.301 90.0136 139.197 90.6021 139.197C91.175 139.197 91.688 139.306 92.1412 139.525C92.5995 139.738 92.9615 140.043 93.2271 140.439C93.4979 140.835 93.6412 141.306 93.6568 141.853H92.3599C92.3547 141.416 92.1933 141.054 91.8755 140.767C91.5578 140.481 91.1334 140.337 90.6021 140.337C90.0969 140.337 89.6933 140.46 89.3912 140.705C89.0891 140.949 88.938 141.249 88.938 141.603C88.938 141.916 89.0526 142.168 89.2818 142.361C89.511 142.548 89.8235 142.689 90.2193 142.783L91.5474 143.095C92.3391 143.283 92.9198 143.564 93.2896 143.939C93.6594 144.309 93.8443 144.791 93.8443 145.384C93.8443 145.895 93.7063 146.332 93.4302 146.697C93.1542 147.061 92.7766 147.34 92.2974 147.533C91.8235 147.725 91.287 147.822 90.688 147.822ZM95.1568 147.634V146.619L99.6724 140.603V140.572H95.1568V139.384H101.313V140.447L96.8443 146.416V146.447H101.344V147.634H95.1568ZM109.579 147.759C108.761 147.759 108.076 147.548 107.524 147.126C106.977 146.705 106.704 146.082 106.704 145.259C106.704 144.785 106.795 144.4 106.977 144.103C107.165 143.806 107.412 143.574 107.719 143.408C108.032 143.236 108.383 143.106 108.774 143.017C109.17 142.929 109.573 142.858 109.985 142.806C110.511 142.733 110.925 142.679 111.227 142.642C111.529 142.606 111.743 142.546 111.868 142.462C111.998 142.379 112.063 142.233 112.063 142.025V141.947C112.063 141.499 111.902 141.129 111.579 140.837C111.261 140.546 110.813 140.4 110.235 140.4C109.662 140.4 109.191 140.541 108.821 140.822C108.456 141.098 108.258 141.442 108.227 141.853H106.876C106.902 141.348 107.058 140.9 107.344 140.509C107.631 140.113 108.021 139.801 108.516 139.572C109.011 139.343 109.584 139.228 110.235 139.228C111.198 139.228 111.961 139.478 112.524 139.978C113.092 140.473 113.376 141.129 113.376 141.947V147.634H112.063V146.462H112.032C111.933 146.66 111.787 146.861 111.594 147.064C111.402 147.262 111.141 147.429 110.813 147.564C110.49 147.694 110.079 147.759 109.579 147.759ZM109.766 146.572C110.308 146.572 110.748 146.475 111.086 146.283C111.425 146.085 111.672 145.83 111.829 145.517C111.985 145.205 112.063 144.869 112.063 144.509V143.478C111.964 143.572 111.701 143.658 111.274 143.736C110.847 143.809 110.396 143.879 109.922 143.947C109.605 143.988 109.303 144.061 109.016 144.166C108.735 144.264 108.506 144.408 108.329 144.595C108.152 144.778 108.063 145.025 108.063 145.337C108.063 145.723 108.214 146.025 108.516 146.244C108.823 146.462 109.24 146.572 109.766 146.572ZM118.501 147.791C117.787 147.791 117.159 147.611 116.618 147.251C116.081 146.887 115.665 146.384 115.368 145.744C115.071 145.098 114.922 144.353 114.922 143.509C114.922 142.66 115.071 141.916 115.368 141.275C115.665 140.629 116.081 140.126 116.618 139.767C117.159 139.408 117.787 139.228 118.501 139.228C119.037 139.228 119.534 139.343 119.993 139.572C120.451 139.796 120.813 140.139 121.079 140.603H121.094V135.994H122.422V147.634H121.126V146.384H121.11C120.813 146.858 120.438 147.212 119.985 147.447C119.532 147.676 119.037 147.791 118.501 147.791ZM118.704 146.595C119.469 146.595 120.076 146.314 120.524 145.751C120.977 145.189 121.204 144.442 121.204 143.509C121.204 142.577 120.977 141.83 120.524 141.267C120.076 140.699 119.469 140.416 118.704 140.416C117.99 140.416 117.404 140.679 116.946 141.205C116.493 141.731 116.266 142.499 116.266 143.509C116.266 144.52 116.493 145.288 116.946 145.814C117.404 146.335 117.99 146.595 118.704 146.595ZM124.391 147.634V139.384H125.657V140.681H125.688C125.839 140.254 126.079 139.91 126.407 139.65C126.735 139.389 127.157 139.259 127.672 139.259C127.792 139.259 127.902 139.264 128.001 139.275C128.105 139.285 128.183 139.296 128.235 139.306V140.634C128.183 140.619 128.081 140.6 127.93 140.58C127.784 140.554 127.615 140.541 127.422 140.541C126.964 140.541 126.566 140.702 126.227 141.025C125.889 141.348 125.719 141.858 125.719 142.556V147.634H124.391ZM132.797 147.822C131.99 147.822 131.3 147.637 130.727 147.267C130.159 146.897 129.725 146.389 129.422 145.744C129.12 145.093 128.969 144.353 128.969 143.525C128.969 142.686 129.128 141.942 129.446 141.291C129.764 140.639 130.204 140.129 130.766 139.759C131.329 139.384 131.975 139.197 132.704 139.197C133.469 139.197 134.133 139.379 134.696 139.744C135.258 140.108 135.691 140.616 135.993 141.267C136.3 141.918 136.454 142.671 136.454 143.525V143.892H130.282C130.313 144.699 130.545 145.356 130.977 145.861C131.409 146.366 132.016 146.619 132.797 146.619C133.386 146.619 133.865 146.483 134.235 146.212C134.61 145.942 134.86 145.593 134.985 145.166H136.313C136.209 145.692 135.993 146.155 135.665 146.556C135.336 146.952 134.925 147.262 134.43 147.486C133.941 147.71 133.396 147.822 132.797 147.822ZM130.297 142.751H135.126C135.053 142.028 134.8 141.452 134.368 141.025C133.935 140.598 133.381 140.384 132.704 140.384C132.027 140.384 131.475 140.598 131.047 141.025C130.62 141.452 130.37 142.028 130.297 142.751ZM140.844 147.822C140.256 147.822 139.722 147.725 139.243 147.533C138.764 147.34 138.376 147.048 138.079 146.658C137.782 146.262 137.615 145.764 137.579 145.166H138.891C138.985 146.176 139.626 146.681 140.813 146.681C141.386 146.681 141.836 146.561 142.165 146.322C142.498 146.082 142.665 145.78 142.665 145.416C142.665 145.103 142.55 144.853 142.321 144.666C142.092 144.478 141.792 144.343 141.422 144.259L140.094 143.947C138.542 143.582 137.766 142.801 137.766 141.603C137.766 141.134 137.891 140.72 138.141 140.361C138.396 139.996 138.748 139.712 139.196 139.509C139.649 139.301 140.17 139.197 140.758 139.197C141.331 139.197 141.844 139.306 142.297 139.525C142.756 139.738 143.118 140.043 143.383 140.439C143.654 140.835 143.797 141.306 143.813 141.853H142.516C142.511 141.416 142.35 141.054 142.032 140.767C141.714 140.481 141.29 140.337 140.758 140.337C140.253 140.337 139.85 140.46 139.547 140.705C139.245 140.949 139.094 141.249 139.094 141.603C139.094 141.916 139.209 142.168 139.438 142.361C139.667 142.548 139.98 142.689 140.376 142.783L141.704 143.095C142.495 143.283 143.076 143.564 143.446 143.939C143.816 144.309 144.001 144.791 144.001 145.384C144.001 145.895 143.863 146.332 143.586 146.697C143.31 147.061 142.933 147.34 142.454 147.533C141.98 147.725 141.443 147.822 140.844 147.822Z" fill="white"/>
<path d="M73.268 187.994H79.028C79.028 187.098 79.2094 186.266 79.5721 185.498C79.9347 184.73 80.3934 184.069 80.948 183.514H81.2681C81.2254 183.792 81.1934 184.08 81.172 184.378C81.1507 184.634 81.1294 184.912 81.1081 185.21C81.1081 185.509 81.1081 185.797 81.1081 186.074C81.1081 186.48 81.1081 186.842 81.1081 187.162C81.1294 187.461 81.1507 187.728 81.172 187.962C81.1934 188.218 81.2254 188.442 81.2681 188.634H68.628V188.314L70.548 187.834V167.034L68.628 166.554V166.234H75.188V166.554L73.268 167.034V187.994ZM89.7393 173.914C89.3766 173.914 89.0033 174.042 88.6193 174.298C88.2566 174.533 87.9153 174.938 87.5953 175.514C87.2966 176.069 87.0406 176.816 86.8273 177.754C86.6353 178.693 86.5393 179.866 86.5393 181.274C86.5393 182.682 86.6353 183.856 86.8273 184.794C87.0406 185.733 87.2966 186.49 87.5953 187.066C87.9153 187.621 88.2566 188.026 88.6193 188.282C89.0033 188.517 89.3766 188.634 89.7393 188.634C90.102 188.634 90.4646 188.517 90.8273 188.282C91.2113 188.026 91.5526 187.621 91.8513 187.066C92.1713 186.49 92.4273 185.733 92.6193 184.794C92.8326 183.856 92.9393 182.682 92.9393 181.274C92.9393 179.866 92.8326 178.693 92.6193 177.754C92.4273 176.816 92.1713 176.069 91.8513 175.514C91.5526 174.938 91.2113 174.533 90.8273 174.298C90.4646 174.042 90.102 173.914 89.7393 173.914ZM89.7393 173.434C90.5286 173.434 91.286 173.616 92.0113 173.978C92.758 174.32 93.4086 174.832 93.9633 175.514C94.5393 176.176 94.9873 176.997 95.3073 177.978C95.6486 178.938 95.8193 180.037 95.8193 181.274C95.8193 182.512 95.6486 183.621 95.3073 184.602C94.9873 185.562 94.5393 186.384 93.9633 187.066C93.4086 187.728 92.758 188.24 92.0113 188.602C91.286 188.944 90.5286 189.114 89.7393 189.114C88.9286 189.114 88.1606 188.944 87.4353 188.602C86.71 188.24 86.0593 187.728 85.4833 187.066C84.9286 186.384 84.4806 185.562 84.1393 184.602C83.8193 183.621 83.6593 182.512 83.6593 181.274C83.6593 180.037 83.8193 178.938 84.1393 177.978C84.4806 176.997 84.9286 176.176 85.4833 175.514C86.0593 174.832 86.71 174.32 87.4353 173.978C88.1606 173.616 88.9286 173.434 89.7393 173.434ZM102.851 187.834L104.771 188.314V188.634H98.3705V188.314L100.291 187.834V174.714L98.3705 174.234V173.914H102.851V177.754C103.128 176.965 103.459 176.25 103.843 175.61C104.184 175.056 104.6 174.554 105.091 174.106C105.581 173.658 106.168 173.434 106.851 173.434C107.085 173.434 107.309 173.456 107.523 173.498C107.736 173.52 107.928 173.552 108.099 173.594C108.291 173.658 108.461 173.712 108.611 173.754L107.651 176.154C107.523 176.09 107.384 176.016 107.235 175.93C107.107 175.866 106.947 175.813 106.755 175.77C106.584 175.706 106.403 175.674 106.211 175.674C105.656 175.674 105.165 175.824 104.739 176.122C104.312 176.421 103.96 176.752 103.683 177.114C103.341 177.541 103.064 178.021 102.851 178.554V187.834ZM112.789 181.274C112.789 182.64 112.885 183.781 113.077 184.698C113.291 185.616 113.557 186.362 113.877 186.938C114.219 187.493 114.592 187.888 114.997 188.122C115.424 188.357 115.861 188.474 116.309 188.474C116.864 188.474 117.387 188.368 117.877 188.154C118.368 187.941 118.805 187.653 119.189 187.29C119.573 186.928 119.883 186.49 120.117 185.978C120.373 185.466 120.544 184.912 120.629 184.314H121.109C121.024 184.997 120.832 185.637 120.533 186.234C120.256 186.81 119.893 187.312 119.445 187.738C118.997 188.165 118.475 188.496 117.877 188.73C117.301 188.986 116.672 189.114 115.989 189.114C115.179 189.114 114.411 188.944 113.685 188.602C112.96 188.24 112.309 187.728 111.733 187.066C111.179 186.384 110.731 185.562 110.389 184.602C110.069 183.621 109.909 182.512 109.909 181.274C109.909 179.994 110.069 178.864 110.389 177.882C110.709 176.901 111.125 176.09 111.637 175.45C112.171 174.789 112.779 174.288 113.461 173.946C114.165 173.605 114.901 173.434 115.669 173.434C116.437 173.434 117.163 173.605 117.845 173.946C118.549 174.288 119.157 174.789 119.669 175.45C120.203 176.09 120.629 176.901 120.949 177.882C121.269 178.864 121.429 179.994 121.429 181.274H112.789ZM115.669 173.914C115.349 173.914 115.029 174.021 114.709 174.234C114.389 174.426 114.091 174.778 113.813 175.29C113.536 175.802 113.301 176.496 113.109 177.37C112.939 178.224 112.832 179.312 112.789 180.634H118.549C118.507 179.312 118.389 178.224 118.197 177.37C118.027 176.496 117.803 175.802 117.525 175.29C117.248 174.778 116.949 174.426 116.629 174.234C116.309 174.021 115.989 173.914 115.669 173.914ZM125.759 187.834V174.714L123.839 174.234V173.914H128.319V175.834C128.533 175.408 128.821 175.013 129.183 174.65C129.482 174.352 129.866 174.074 130.335 173.818C130.805 173.562 131.359 173.434 131.999 173.434C132.81 173.434 133.471 173.584 133.983 173.882C134.517 174.181 134.943 174.512 135.263 174.874C135.647 175.301 135.946 175.781 136.159 176.314C136.437 175.781 136.767 175.301 137.151 174.874C137.493 174.512 137.909 174.181 138.399 173.882C138.89 173.584 139.477 173.434 140.159 173.434C140.799 173.434 141.386 173.552 141.919 173.786C142.474 174.021 142.954 174.352 143.359 174.778C143.765 175.184 144.074 175.685 144.287 176.282C144.522 176.858 144.639 177.509 144.639 178.234V187.834L146.559 188.314V188.634H140.319V188.314L142.079 187.834V178.234C142.079 176.72 141.834 175.653 141.343 175.034C140.874 174.394 140.319 174.074 139.679 174.074C139.146 174.074 138.687 174.224 138.303 174.522C137.919 174.821 137.589 175.152 137.311 175.514C136.991 175.941 136.714 176.421 136.479 176.954V187.834L138.239 188.314V188.634H132.159V188.314L133.919 187.834V178.234C133.919 176.72 133.674 175.653 133.183 175.034C132.714 174.394 132.159 174.074 131.519 174.074C130.986 174.074 130.527 174.224 130.143 174.522C129.759 174.821 129.429 175.152 129.151 175.514C128.831 175.941 128.554 176.421 128.319 176.954V187.834L130.079 188.314V188.634H123.839V188.314L125.759 187.834ZM150.384 185.434C150.875 185.434 151.291 185.626 151.632 186.01C151.974 186.373 152.144 186.874 152.144 187.514C152.144 188.453 151.995 189.21 151.696 189.786C151.419 190.362 151.11 190.821 150.768 191.162C150.384 191.546 149.936 191.834 149.424 192.026L149.104 191.514C149.467 191.344 149.787 191.141 150.064 190.906C150.299 190.714 150.512 190.469 150.704 190.17C150.918 189.872 151.024 189.52 151.024 189.114C151.024 189.029 151.014 188.954 150.992 188.89C150.971 188.848 150.95 188.805 150.928 188.762L150.864 188.634C150.822 188.677 150.758 188.709 150.672 188.73C150.502 188.773 150.352 188.794 150.224 188.794C149.734 188.794 149.339 188.656 149.04 188.378C148.763 188.08 148.624 187.685 148.624 187.194C148.624 186.704 148.795 186.288 149.136 185.946C149.478 185.605 149.894 185.434 150.384 185.434ZM79.508 212.434C79.508 210.194 79.3801 208.349 79.1241 206.898C78.8681 205.448 78.5481 204.306 78.1641 203.474C77.78 202.642 77.3534 202.066 76.884 201.746C76.4147 201.405 75.956 201.234 75.508 201.234C75.06 201.234 74.6014 201.405 74.132 201.746C73.6627 202.066 73.236 202.642 72.852 203.474C72.468 204.306 72.148 205.448 71.892 206.898C71.636 208.349 71.508 210.194 71.508 212.434C71.508 214.674 71.636 216.52 71.892 217.97C72.148 219.421 72.468 220.562 72.852 221.394C73.236 222.226 73.6627 222.813 74.132 223.154C74.6014 223.474 75.06 223.634 75.508 223.634C75.956 223.634 76.4147 223.474 76.884 223.154C77.3534 222.813 77.78 222.226 78.1641 221.394C78.5481 220.562 78.8681 219.421 79.1241 217.97C79.3801 216.52 79.508 214.674 79.508 212.434ZM82.548 212.434C82.548 214.482 82.3454 216.242 81.9401 217.714C81.5347 219.186 81.0014 220.402 80.34 221.362C79.6787 222.301 78.9214 222.994 78.068 223.442C77.236 223.89 76.3827 224.114 75.508 224.114C74.6334 224.114 73.7694 223.89 72.916 223.442C72.084 222.994 71.3374 222.301 70.676 221.362C70.0147 220.402 69.4814 219.186 69.076 217.714C68.6707 216.242 68.468 214.482 68.468 212.434C68.468 210.386 68.6707 208.626 69.076 207.154C69.4814 205.682 70.0147 204.477 70.676 203.538C71.3374 202.578 72.084 201.874 72.916 201.426C73.7694 200.978 74.6334 200.754 75.508 200.754C76.3827 200.754 77.236 200.978 78.068 201.426C78.9214 201.874 79.6787 202.578 80.34 203.538C81.0014 204.477 81.5347 205.682 81.9401 207.154C82.3454 208.626 82.548 210.386 82.548 212.434ZM90.053 222.834L91.9731 223.314V223.634H85.413V223.314L87.333 222.834V202.514H84.133V202.034L90.053 200.754V222.834ZM104.294 213.714V214.994H94.0543V213.714H104.294ZM117.571 212.434C117.571 210.194 117.443 208.349 117.187 206.898C116.931 205.448 116.611 204.306 116.227 203.474C115.843 202.642 115.416 202.066 114.947 201.746C114.477 201.405 114.019 201.234 113.571 201.234C113.123 201.234 112.664 201.405 112.195 201.746C111.725 202.066 111.299 202.642 110.915 203.474C110.531 204.306 110.211 205.448 109.955 206.898C109.699 208.349 109.571 210.194 109.571 212.434C109.571 214.674 109.699 216.52 109.955 217.97C110.211 219.421 110.531 220.562 110.915 221.394C111.299 222.226 111.725 222.813 112.195 223.154C112.664 223.474 113.123 223.634 113.571 223.634C114.019 223.634 114.477 223.474 114.947 223.154C115.416 222.813 115.843 222.226 116.227 221.394C116.611 220.562 116.931 219.421 117.187 217.97C117.443 216.52 117.571 214.674 117.571 212.434ZM120.611 212.434C120.611 214.482 120.408 216.242 120.003 217.714C119.597 219.186 119.064 220.402 118.403 221.362C117.741 222.301 116.984 222.994 116.131 223.442C115.299 223.89 114.445 224.114 113.571 224.114C112.696 224.114 111.832 223.89 110.979 223.442C110.147 222.994 109.4 222.301 108.739 221.362C108.077 220.402 107.544 219.186 107.139 217.714C106.733 216.242 106.531 214.482 106.531 212.434C106.531 210.386 106.733 208.626 107.139 207.154C107.544 205.682 108.077 204.477 108.739 203.538C109.4 202.578 110.147 201.874 110.979 201.426C111.832 200.978 112.696 200.754 113.571 200.754C114.445 200.754 115.299 200.978 116.131 201.426C116.984 201.874 117.741 202.578 118.403 203.538C119.064 204.477 119.597 205.682 120.003 207.154C120.408 208.626 120.611 210.386 120.611 212.434ZM134.196 212.434C134.196 210.194 134.068 208.349 133.812 206.898C133.556 205.448 133.236 204.306 132.852 203.474C132.468 202.642 132.041 202.066 131.572 201.746C131.102 201.405 130.644 201.234 130.196 201.234C129.748 201.234 129.289 201.405 128.82 201.746C128.35 202.066 127.924 202.642 127.54 203.474C127.156 204.306 126.836 205.448 126.58 206.898C126.324 208.349 126.196 210.194 126.196 212.434C126.196 214.674 126.324 216.52 126.58 217.97C126.836 219.421 127.156 220.562 127.54 221.394C127.924 222.226 128.35 222.813 128.82 223.154C129.289 223.474 129.748 223.634 130.196 223.634C130.644 223.634 131.102 223.474 131.572 223.154C132.041 222.813 132.468 222.226 132.852 221.394C133.236 220.562 133.556 219.421 133.812 217.97C134.068 216.52 134.196 214.674 134.196 212.434ZM137.236 212.434C137.236 214.482 137.033 216.242 136.628 217.714C136.222 219.186 135.689 220.402 135.028 221.362C134.366 222.301 133.609 222.994 132.756 223.442C131.924 223.89 131.07 224.114 130.196 224.114C129.321 224.114 128.457 223.89 127.604 223.442C126.772 222.994 126.025 222.301 125.364 221.362C124.702 220.402 124.169 219.186 123.764 217.714C123.358 216.242 123.156 214.482 123.156 212.434C123.156 210.386 123.358 208.626 123.764 207.154C124.169 205.682 124.702 204.477 125.364 203.538C126.025 202.578 126.772 201.874 127.604 201.426C128.457 200.978 129.321 200.754 130.196 200.754C131.07 200.754 131.924 200.978 132.756 201.426C133.609 201.874 134.366 202.578 135.028 203.538C135.689 204.477 136.222 205.682 136.628 207.154C137.033 208.626 137.236 210.386 137.236 212.434ZM144.581 223.474C145.221 223.474 145.839 223.325 146.437 223.026C147.034 222.728 147.557 222.28 148.005 221.682C148.474 221.085 148.847 220.338 149.125 219.442C149.402 218.525 149.541 217.469 149.541 216.274C149.541 215.186 149.381 214.226 149.061 213.394C148.762 212.541 148.335 211.816 147.781 211.218C147.247 210.621 146.597 210.173 145.829 209.874C145.061 209.554 144.218 209.394 143.301 209.394C142.938 209.394 142.597 209.426 142.277 209.49C141.957 209.554 141.669 209.629 141.413 209.714C141.114 209.8 140.837 209.906 140.581 210.034L142.341 201.202C142.341 201.202 142.447 201.224 142.661 201.266C142.874 201.309 143.151 201.352 143.493 201.394C143.855 201.437 144.25 201.48 144.677 201.522C145.125 201.544 145.573 201.554 146.021 201.554C146.703 201.554 147.354 201.522 147.973 201.458C148.613 201.394 149.178 201.32 149.669 201.234C150.245 201.149 150.789 201.042 151.301 200.914L151.269 201.234C150.458 202.13 149.338 202.813 147.909 203.282C146.479 203.73 144.677 203.954 142.501 203.954L141.541 208.754C141.754 208.712 141.989 208.658 142.245 208.594C142.479 208.552 142.757 208.52 143.077 208.498C143.418 208.456 143.813 208.434 144.261 208.434C145.541 208.434 146.693 208.626 147.717 209.01C148.741 209.394 149.615 209.928 150.341 210.61C151.066 211.293 151.621 212.125 152.005 213.106C152.389 214.066 152.581 215.122 152.581 216.274C152.581 217.426 152.389 218.493 152.005 219.474C151.621 220.434 151.087 221.256 150.405 221.938C149.743 222.621 148.933 223.154 147.973 223.538C147.034 223.922 146.01 224.114 144.901 224.114C144.069 224.114 143.301 223.976 142.597 223.698C141.893 223.421 141.285 223.037 140.773 222.546C140.261 222.056 139.855 221.48 139.557 220.818C139.279 220.157 139.141 219.442 139.141 218.674C139.141 217.16 139.45 216.04 140.069 215.314C140.709 214.568 141.466 214.194 142.341 214.194C142.447 214.194 142.554 214.205 142.661 214.226C142.789 214.248 142.906 214.269 143.013 214.29C143.119 214.312 143.215 214.333 143.301 214.354L142.661 216.914C141.701 216.914 140.975 217.138 140.485 217.586C140.015 218.013 139.781 218.589 139.781 219.314C139.781 219.826 139.898 220.338 140.133 220.85C140.389 221.341 140.73 221.789 141.157 222.194C141.583 222.578 142.085 222.888 142.661 223.122C143.258 223.357 143.898 223.474 144.581 223.474ZM160.899 201.554V201.234H167.619V201.554L165.699 202.034L170.339 218.514L174.979 200.754H175.459L180.707 218.514L184.899 202.354L182.819 201.554V201.234H187.619V201.554L185.539 202.354L179.939 224.114H179.459L174.179 206.194L169.539 224.114H169.059L162.819 202.034L160.899 201.554ZM195.944 215.794C194.088 215.794 192.712 216.21 191.816 217.042C190.942 217.853 190.504 218.984 190.504 220.434C190.504 221.394 190.739 222.141 191.208 222.674C191.678 223.208 192.19 223.474 192.744 223.474C193.256 223.474 193.704 223.325 194.088 223.026C194.494 222.728 194.835 222.397 195.112 222.034C195.432 221.629 195.71 221.149 195.944 220.594V215.794ZM193.544 208.914C192.904 208.914 192.371 209.138 191.944 209.586C191.518 210.013 191.304 210.589 191.304 211.314C191.304 211.485 191.304 211.634 191.304 211.762C191.326 211.89 191.347 212.008 191.368 212.114C191.39 212.221 191.422 212.328 191.464 212.434L188.904 213.074C188.862 213.01 188.83 212.925 188.808 212.818C188.787 212.712 188.766 212.594 188.744 212.466C188.744 212.338 188.744 212.168 188.744 211.954C188.744 211.506 188.851 211.08 189.064 210.674C189.278 210.248 189.587 209.874 189.992 209.554C190.419 209.213 190.92 208.946 191.496 208.754C192.094 208.541 192.776 208.434 193.544 208.434C195.08 208.434 196.286 208.872 197.16 209.746C198.056 210.621 198.504 211.784 198.504 213.234V222.834L200.424 223.314V223.634H195.944V221.714C195.71 222.162 195.411 222.568 195.048 222.93C194.75 223.229 194.366 223.496 193.896 223.73C193.448 223.986 192.904 224.114 192.264 224.114C190.728 224.114 189.566 223.752 188.776 223.026C188.008 222.301 187.624 221.33 187.624 220.114C187.624 219.517 187.784 218.92 188.104 218.322C188.446 217.725 188.947 217.192 189.608 216.722C190.291 216.253 191.155 215.88 192.2 215.602C193.246 215.304 194.494 215.154 195.944 215.154V213.234C195.944 211.634 195.699 210.514 195.208 209.874C194.739 209.234 194.184 208.914 193.544 208.914ZM206.819 222.834L208.739 223.314V223.634H202.339V223.314L204.259 222.834V209.714L202.339 209.234V208.914H206.819V212.754C207.097 211.965 207.427 211.25 207.811 210.61C208.153 210.056 208.569 209.554 209.059 209.106C209.55 208.658 210.137 208.434 210.819 208.434C211.054 208.434 211.278 208.456 211.491 208.498C211.705 208.52 211.897 208.552 212.067 208.594C212.259 208.658 212.43 208.712 212.579 208.754L211.619 211.154C211.491 211.09 211.353 211.016 211.203 210.93C211.075 210.866 210.915 210.813 210.723 210.77C210.553 210.706 210.371 210.674 210.179 210.674C209.625 210.674 209.134 210.824 208.707 211.122C208.281 211.421 207.929 211.752 207.651 212.114C207.31 212.541 207.033 213.021 206.819 213.554V222.834ZM219.631 224.114C218.948 224.114 218.361 224.029 217.871 223.858C217.38 223.709 216.985 223.528 216.687 223.314C216.324 223.08 216.025 222.813 215.791 222.514C215.705 222.834 215.524 223.133 215.247 223.41C214.991 223.688 214.745 223.869 214.511 223.954H214.031C214.052 223.677 214.073 223.389 214.095 223.09C214.116 222.834 214.137 222.568 214.159 222.29C214.18 221.992 214.191 221.693 214.191 221.394C214.191 221.074 214.18 220.754 214.159 220.434C214.137 220.114 214.116 219.826 214.095 219.57C214.073 219.272 214.052 218.973 214.031 218.674H214.511C214.916 220.21 215.535 221.394 216.367 222.226C217.199 223.058 218.18 223.474 219.311 223.474C220.207 223.474 220.932 223.197 221.487 222.642C222.063 222.088 222.351 221.405 222.351 220.594C222.351 220.018 222.148 219.517 221.743 219.09C221.359 218.664 220.868 218.28 220.271 217.938C219.673 217.576 219.033 217.224 218.351 216.882C217.668 216.541 217.028 216.157 216.431 215.73C215.833 215.304 215.332 214.802 214.927 214.226C214.543 213.65 214.351 212.946 214.351 212.114C214.351 211.645 214.457 211.186 214.671 210.738C214.884 210.29 215.172 209.896 215.535 209.554C215.919 209.213 216.377 208.946 216.911 208.754C217.444 208.541 218.031 208.434 218.671 208.434C219.225 208.434 219.705 208.52 220.111 208.69C220.537 208.861 220.9 209.042 221.199 209.234C221.519 209.469 221.796 209.736 222.031 210.034C222.116 209.714 222.287 209.416 222.543 209.138C222.82 208.861 223.076 208.68 223.311 208.594H223.791C223.748 208.872 223.716 209.16 223.695 209.458C223.673 209.714 223.652 209.992 223.631 210.29C223.631 210.589 223.631 210.877 223.631 211.154C223.631 211.474 223.631 211.805 223.631 212.146C223.652 212.466 223.673 212.754 223.695 213.01C223.716 213.309 223.748 213.597 223.791 213.874H223.311C222.905 212.338 222.308 211.154 221.519 210.322C220.729 209.49 219.887 209.074 218.991 209.074C218.265 209.074 217.657 209.32 217.167 209.81C216.676 210.28 216.431 210.834 216.431 211.474C216.431 212.008 216.633 212.466 217.039 212.85C217.444 213.234 217.945 213.597 218.543 213.938C219.14 214.258 219.791 214.589 220.495 214.93C221.22 215.272 221.881 215.666 222.479 216.114C223.076 216.562 223.577 217.096 223.983 217.714C224.388 218.333 224.591 219.08 224.591 219.954C224.591 220.466 224.463 220.978 224.207 221.49C223.972 221.981 223.631 222.429 223.183 222.834C222.756 223.218 222.233 223.528 221.615 223.762C221.017 223.997 220.356 224.114 219.631 224.114ZM235.959 222.994C235.959 222.098 236.141 221.309 236.503 220.626C236.866 219.922 237.325 219.325 237.879 218.834H238.199C238.157 219.112 238.125 219.389 238.103 219.666C238.082 219.901 238.061 220.168 238.039 220.466C238.039 220.744 238.039 221 238.039 221.234C238.039 221.597 238.039 221.928 238.039 222.226C238.061 222.504 238.082 222.749 238.103 222.962C238.125 223.197 238.157 223.421 238.199 223.634H226.839L234.839 209.554H229.719C229.719 210.45 229.538 211.25 229.175 211.954C228.813 212.637 228.354 213.224 227.799 213.714H227.479C227.501 213.437 227.522 213.16 227.543 212.882C227.565 212.648 227.586 212.392 227.607 212.114C227.629 211.816 227.639 211.549 227.639 211.314C227.639 210.952 227.629 210.632 227.607 210.354C227.586 210.056 227.565 209.8 227.543 209.586C227.522 209.352 227.501 209.128 227.479 208.914H238.199L230.199 222.994H235.959ZM249.069 215.794C247.213 215.794 245.837 216.21 244.941 217.042C244.067 217.853 243.629 218.984 243.629 220.434C243.629 221.394 243.864 222.141 244.333 222.674C244.803 223.208 245.315 223.474 245.869 223.474C246.381 223.474 246.829 223.325 247.213 223.026C247.619 222.728 247.96 222.397 248.237 222.034C248.557 221.629 248.835 221.149 249.069 220.594V215.794ZM246.669 208.914C246.029 208.914 245.496 209.138 245.069 209.586C244.643 210.013 244.429 210.589 244.429 211.314C244.429 211.485 244.429 211.634 244.429 211.762C244.451 211.89 244.472 212.008 244.493 212.114C244.515 212.221 244.547 212.328 244.589 212.434L242.029 213.074C241.987 213.01 241.955 212.925 241.933 212.818C241.912 212.712 241.891 212.594 241.869 212.466C241.869 212.338 241.869 212.168 241.869 211.954C241.869 211.506 241.976 211.08 242.189 210.674C242.403 210.248 242.712 209.874 243.117 209.554C243.544 209.213 244.045 208.946 244.621 208.754C245.219 208.541 245.901 208.434 246.669 208.434C248.205 208.434 249.411 208.872 250.285 209.746C251.181 210.621 251.629 211.784 251.629 213.234V222.834L253.549 223.314V223.634H249.069V221.714C248.835 222.162 248.536 222.568 248.173 222.93C247.875 223.229 247.491 223.496 247.021 223.73C246.573 223.986 246.029 224.114 245.389 224.114C243.853 224.114 242.691 223.752 241.901 223.026C241.133 222.301 240.749 221.33 240.749 220.114C240.749 219.517 240.909 218.92 241.229 218.322C241.571 217.725 242.072 217.192 242.733 216.722C243.416 216.253 244.28 215.88 245.325 215.602C246.371 215.304 247.619 215.154 249.069 215.154V213.234C249.069 211.634 248.824 210.514 248.333 209.874C247.864 209.234 247.309 208.914 246.669 208.914ZM260.599 224.114H260.119L255.319 209.714L253.399 209.234V208.914H259.799V209.234L258.039 209.714L261.367 219.73L264.919 208.434H265.399L269.495 219.73L272.439 210.034L270.359 209.234V208.914H275.159V209.234L273.079 210.034L268.759 224.114H268.279L264.151 212.786L260.599 224.114ZM284.288 215.794C282.432 215.794 281.056 216.21 280.16 217.042C279.285 217.853 278.848 218.984 278.848 220.434C278.848 221.394 279.083 222.141 279.552 222.674C280.021 223.208 280.533 223.474 281.088 223.474C281.6 223.474 282.048 223.325 282.432 223.026C282.837 222.728 283.179 222.397 283.456 222.034C283.776 221.629 284.053 221.149 284.288 220.594V215.794ZM281.888 208.914C281.248 208.914 280.715 209.138 280.288 209.586C279.861 210.013 279.648 210.589 279.648 211.314C279.648 211.485 279.648 211.634 279.648 211.762C279.669 211.89 279.691 212.008 279.712 212.114C279.733 212.221 279.765 212.328 279.808 212.434L277.248 213.074C277.205 213.01 277.173 212.925 277.152 212.818C277.131 212.712 277.109 212.594 277.088 212.466C277.088 212.338 277.088 212.168 277.088 211.954C277.088 211.506 277.195 211.08 277.408 210.674C277.621 210.248 277.931 209.874 278.336 209.554C278.763 209.213 279.264 208.946 279.84 208.754C280.437 208.541 281.12 208.434 281.888 208.434C283.424 208.434 284.629 208.872 285.504 209.746C286.4 210.621 286.848 211.784 286.848 213.234V222.834L288.768 223.314V223.634H284.288V221.714C284.053 222.162 283.755 222.568 283.392 222.93C283.093 223.229 282.709 223.496 282.24 223.73C281.792 223.986 281.248 224.114 280.608 224.114C279.072 224.114 277.909 223.752 277.12 223.026C276.352 222.301 275.968 221.33 275.968 220.114C275.968 219.517 276.128 218.92 276.448 218.322C276.789 217.725 277.291 217.192 277.952 216.722C278.635 216.253 279.499 215.88 280.544 215.602C281.589 215.304 282.837 215.154 284.288 215.154V213.234C284.288 211.634 284.043 210.514 283.552 209.874C283.083 209.234 282.528 208.914 281.888 208.914Z" fill="white"/>
<ellipse cx="331.94" cy="215.634" rx="13.1282" ry="12" fill="white"/>
<path fill-rule="evenodd" clip-rule="evenodd" d="M336.253 210.878C336.88 210.672 337.487 211.226 337.261 211.799L333.296 221.865C333.05 222.491 332.087 222.503 331.822 221.883L329.965 217.547L325.22 215.85C324.543 215.607 324.556 214.727 325.24 214.502L336.253 210.878Z" fill="#CC8E1E"/>
</svg>
